<svg width="41" height="41" viewBox="0 0 41 41" fill="none" xmlns="http://www.w3.org/2000/svg">
<g clip-path="url(#clip0)">
<path d="M39.5213 14.7601L29.3174 8.57593C29.2583 8.53908 29.192 8.51528 29.123 8.50615C29.0539 8.49702 28.9837 8.50275 28.9171 8.52298C28.8504 8.5432 28.7889 8.57744 28.7365 8.6234C28.6842 8.66937 28.6423 8.72599 28.6136 8.78948L26.2219 14.4031L31.077 17.3004C31.2159 17.3795 31.3313 17.494 31.4116 17.6321C31.4919 17.7703 31.5342 17.9273 31.5342 18.0871C31.5342 18.2469 31.4919 18.4039 31.4116 18.542C31.3313 18.6802 31.2159 18.7947 31.077 18.8738L21.9631 24.2379L18.0903 33.2477C18.067 33.2742 18.0506 33.306 18.0424 33.3403C18.0342 33.3746 18.0345 33.4103 18.0433 33.4445C18.052 33.4786 18.069 33.5102 18.0926 33.5363C18.1163 33.5624 18.146 33.5824 18.1791 33.5945C18.2188 33.6089 18.262 33.6109 18.3029 33.6002C18.3438 33.5895 18.3804 33.5667 18.408 33.5347L25.0944 29.4945L27.7338 33.2853C27.7916 33.3725 27.87 33.4442 27.9621 33.4939C28.0541 33.5437 28.157 33.57 28.2617 33.5706H34.5962C34.7118 33.5706 34.8251 33.5387 34.9237 33.4785C35.0222 33.4182 35.1022 33.3318 35.1548 33.2289C35.2088 33.1262 35.2344 33.0109 35.229 32.895C35.2236 32.7791 35.1874 32.6667 35.1241 32.5695L30.831 25.989L39.523 20.7324C40.5087 20.1362 41.0007 19.4683 41.0007 18.7303V16.764C41.0007 16.0243 40.5087 15.358 39.5213 14.7618V14.7601ZM22.3492 7.43135L1.44428 20.5889C0.45857 21.1834 -0.0214719 21.8514 0.000736464 22.5894V24.5933C0.0246531 25.3313 0.518361 25.9873 1.48015 26.5578L11.8258 32.5302C11.8872 32.5661 11.9557 32.5881 12.0265 32.5948C12.0973 32.6015 12.1686 32.5927 12.2357 32.569C12.3027 32.5452 12.3637 32.5071 12.4145 32.4573C12.4653 32.4076 12.5046 32.3473 12.5297 32.2808L14.853 26.6672L9.92615 23.8775C9.80145 23.8132 9.69382 23.7202 9.61214 23.6061C9.53046 23.4921 9.47706 23.3602 9.45636 23.2215C9.42854 23.0427 9.45503 22.8597 9.53239 22.6961C9.60975 22.5326 9.73443 22.396 9.89028 22.3041L18.9359 16.7606L22.6652 7.67906C22.6802 7.63652 22.6817 7.59036 22.6695 7.54693C22.6573 7.5035 22.6319 7.46492 22.5969 7.43648C22.5618 7.40833 22.5185 7.39229 22.4736 7.39075C22.4286 7.38921 22.3844 7.40225 22.3474 7.42793L22.3492 7.43135Z" fill="black"/>
</g>
<defs>
<clipPath id="clip0">
<rect width="41" height="41" fill="white"/>
</clipPath>
</defs>
</svg>
