<svg width="44" height="45" viewBox="0 0 44 45" fill="none" xmlns="http://www.w3.org/2000/svg">
<path d="M39.2836 0.142578H4.71575C2.11334 0.142578 0.00195312 2.25397 0.00195312 4.85637V39.4242C0.00195312 42.0266 2.11334 44.138 4.71575 44.138H39.2836C41.886 44.138 43.9974 42.0266 43.9974 39.4242V4.85637C43.9974 2.25397 41.886 0.142578 39.2836 0.142578ZM27.2339 37.8235C26.409 37.9708 26.1046 37.4601 26.1046 37.0379C26.1046 36.5076 26.1242 33.7971 26.1242 31.6072C26.1242 30.0752 25.6136 29.103 25.0145 28.5923C28.6481 28.1897 32.478 27.6888 32.478 21.4136C32.478 19.6263 31.8397 18.7326 30.7988 17.5836C30.9657 17.1613 31.5255 15.4231 30.6318 13.1644C29.2668 12.7422 26.1439 14.9223 26.1439 14.9223C24.8476 14.5589 23.4433 14.3723 22.0586 14.3723C20.6739 14.3723 19.2696 14.5589 17.9733 14.9223C17.9733 14.9223 14.8504 12.7422 13.4854 13.1644C12.5917 15.4133 13.1417 17.1515 13.3184 17.5836C12.2775 18.7326 11.7864 19.6263 11.7864 21.4136C11.7864 27.6594 15.4495 28.1897 19.083 28.5923C18.6116 29.0146 18.1893 29.7413 18.042 30.7823C17.1091 31.2045 14.7227 31.9312 13.2988 29.4172C12.4051 27.8656 10.7946 27.7379 10.7946 27.7379C9.20368 27.7183 10.6866 28.7396 10.6866 28.7396C11.7472 29.2306 12.4935 31.1161 12.4935 31.1161C13.4461 34.0328 18.0028 33.0508 18.0028 33.0508C18.0028 34.4158 18.0224 36.6352 18.0224 37.0379C18.0224 37.4601 17.7278 37.9708 16.8931 37.8235C10.4116 35.6532 5.87456 29.486 5.87456 22.2778C5.87456 13.2626 12.7685 6.41782 21.7836 6.41782C30.7988 6.41782 38.1051 13.2626 38.1051 22.2778C38.115 29.486 33.7154 35.663 27.2339 37.8235ZM17.6001 31.8232C17.4135 31.8625 17.2368 31.7839 17.2171 31.6563C17.1975 31.509 17.3252 31.3813 17.5117 31.342C17.6983 31.3224 17.8751 31.4009 17.8947 31.5286C17.9242 31.6563 17.7965 31.7839 17.6001 31.8232ZM16.6672 31.7348C16.6672 31.8625 16.5199 31.9705 16.3235 31.9705C16.1074 31.9902 15.9601 31.8821 15.9601 31.7348C15.9601 31.6072 16.1074 31.4991 16.3038 31.4991C16.4904 31.4795 16.6672 31.5875 16.6672 31.7348ZM15.3218 31.6268C15.2825 31.7545 15.0861 31.8134 14.9192 31.7545C14.7326 31.7152 14.6049 31.5679 14.6442 31.4402C14.6835 31.3126 14.8799 31.2536 15.0468 31.2929C15.2432 31.3518 15.3709 31.4991 15.3218 31.6268ZM14.1139 31.0965C14.0255 31.2045 13.8389 31.1849 13.6916 31.0376C13.5443 30.9099 13.505 30.7233 13.6032 30.6349C13.6916 30.5269 13.8782 30.5466 14.0255 30.6939C14.1532 30.8215 14.2023 31.0179 14.1139 31.0965ZM13.2202 30.2028C13.1318 30.2618 12.9649 30.2028 12.8569 30.0555C12.7488 29.9082 12.7488 29.7413 12.8569 29.6725C12.9649 29.5842 13.1318 29.6529 13.2202 29.8002C13.3282 29.9475 13.3282 30.1243 13.2202 30.2028ZM12.5819 29.2503C12.4935 29.3387 12.3462 29.2895 12.2382 29.1913C12.1302 29.0637 12.1105 28.9164 12.1989 28.8476C12.2873 28.7592 12.4346 28.8083 12.5426 28.9066C12.6506 29.0342 12.6703 29.1815 12.5819 29.2503ZM11.9239 28.5236C11.8846 28.6119 11.757 28.6316 11.649 28.5628C11.5213 28.5039 11.4624 28.3959 11.5016 28.3075C11.5409 28.2486 11.649 28.2191 11.7766 28.2682C11.9043 28.337 11.9632 28.445 11.9239 28.5236Z" fill="#E7DFDD"/>
</svg>
