<?xml version="1.0" standalone="no"?>
<!DOCTYPE svg PUBLIC "-//W3C//DTD SVG 20010904//EN"
 "http://www.w3.org/TR/2001/REC-SVG-20010904/DTD/svg10.dtd">
<svg version="1.0" xmlns="http://www.w3.org/2000/svg"
 width="50.000000pt" height="50.000000pt" viewBox="0 0 50.000000 50.000000"
 preserveAspectRatio="xMidYMid meet">

<g transform="translate(0.000000,50.000000) scale(0.100000,-0.100000)"
fill="#000000" stroke="none">
<path d="M204 451 c-179 -44 -216 -285 -58 -377 181 -106 386 99 280 280 -43
74 -141 117 -222 97z m114 -26 c160 -67 160 -283 0 -350 -92 -38 -195 5 -239
100 -44 94 -2 201 96 246 49 23 94 24 143 4z"/>
<path d="M155 383 l-40 -28 28 -3 c27 -3 37 -17 17 -24 -6 -2 1 -38 18 -87 30
-89 32 -90 51 -28 15 45 6 91 -22 117 l-21 20 58 0 c50 0 57 -2 46 -15 -9 -11
-6 -31 16 -97 l27 -83 15 53 c14 48 13 56 -4 93 -14 32 -15 44 -6 59 18 29
-19 50 -88 50 -44 0 -63 -6 -95 -27z"/>
<path d="M90 262 c0 -59 21 -115 53 -137 12 -8 22 -13 24 -12 3 4 -54 164 -67
187 -7 10 -9 -2 -10 -38z"/>
<path d="M373 215 c-17 -52 -27 -95 -23 -95 24 0 54 67 58 127 3 35 3 63 0 63
-2 0 -18 -43 -35 -95z"/>
<path d="M245 208 c-21 -57 -35 -102 -35 -109 0 -5 21 -9 46 -9 33 0 45 4 42
13 -3 6 -13 36 -22 65 -18 54 -23 61 -31 40z"/>
</g>
</svg>
