<svg width="100" height="100" viewBox="0 0 100 100" fill="none" xmlns="http://www.w3.org/2000/svg">
<g filter="url(#filter0_i)">
<path d="M46 2.3094C48.4752 0.880338 51.5248 0.880339 54 2.3094L89.3013 22.6906C91.7765 24.1197 93.3013 26.7607 93.3013 29.6188V70.3812C93.3013 73.2393 91.7765 75.8803 89.3013 77.3094L54 97.6906C51.5248 99.1197 48.4752 99.1197 46 97.6906L10.6987 77.3094C8.22352 75.8803 6.69873 73.2393 6.69873 70.3812V29.6188C6.69873 26.7607 8.22352 24.1197 10.6987 22.6906L46 2.3094Z" fill="url(#paint0_linear)"/>
<path d="M51.6992 71.6982C48.4408 71.6982 45.8089 71.4655 43.8037 71C41.7985 70.5345 40.1872 69.9168 38.9697 69.147C37.7702 68.3771 36.8123 67.3924 36.0962 66.1929C35.38 64.9754 34.8966 63.7311 34.646 62.46C34.4132 61.1888 34.2969 59.7028 34.2969 58.002V44.7622C34.2969 40.0356 35.2547 36.7235 37.1704 34.8257C39.0861 32.91 41.6284 31.6836 44.7974 31.1465C46.5877 30.8242 48.6108 30.672 50.8667 30.6899C59.0487 30.6899 63.9274 32.9279 65.5029 37.4038C66.2191 39.409 66.5771 41.8081 66.5771 44.6011V45.0845L58.7622 45.9976V43.9834C58.7622 41.2262 58.2161 39.3643 57.124 38.3975C56.0498 37.4307 53.9819 36.9473 50.9204 36.9473C47.8589 36.9473 45.6478 37.4396 44.2871 38.4243C42.9443 39.3911 42.2729 41.1904 42.2729 43.8223V58.8076C42.2729 61.4574 42.9622 63.2298 44.3408 64.125C45.7373 65.0023 47.9484 65.4409 50.9741 65.4409C52.5675 65.4409 53.8298 65.3604 54.7607 65.1992C55.6917 65.0202 56.4705 64.6711 57.0972 64.1519C57.7417 63.6326 58.1803 62.9434 58.4131 62.084C58.6458 61.2246 58.7622 60.0788 58.7622 58.6465V57.3843H66.5771V58.1094C66.5771 62.0303 65.9953 64.868 64.8315 66.6226C63.6857 68.3592 62.0296 69.6393 59.8633 70.4629C57.6969 71.2865 54.9756 71.6982 51.6992 71.6982Z" fill="url(#paint1_linear)"/>
</g>
<defs>
<filter id="filter0_i" x="6.69922" y="-1.76221" width="86.6025" height="100.525" filterUnits="userSpaceOnUse" color-interpolation-filters="sRGB">
<feFlood flood-opacity="0" result="BackgroundImageFix"/>
<feBlend mode="normal" in="SourceGraphic" in2="BackgroundImageFix" result="shape"/>
<feColorMatrix in="SourceAlpha" type="matrix" values="0 0 0 0 0 0 0 0 0 0 0 0 0 0 0 0 0 0 127 0" result="hardAlpha"/>
<feOffset dy="-3"/>
<feGaussianBlur stdDeviation="2"/>
<feComposite in2="hardAlpha" operator="arithmetic" k2="-1" k3="1"/>
<feColorMatrix type="matrix" values="0 0 0 0 0 0 0 0 0 0 0 0 0 0 0 0 0 0 0.25 0"/>
<feBlend mode="normal" in2="shape" result="effect1_innerShadow"/>
</filter>
<linearGradient id="paint0_linear" x1="2.25436e-06" y1="28.1746" x2="143.125" y2="100" gradientUnits="userSpaceOnUse">
<stop stop-color="#8DE9D5"/>
<stop offset="0.951523" stop-color="#8DE9D5" stop-opacity="0"/>
</linearGradient>
<linearGradient id="paint1_linear" x1="6" y1="4" x2="90.5" y2="100" gradientUnits="userSpaceOnUse">
<stop stop-color="white"/>
<stop offset="0.9999" stop-color="white" stop-opacity="0.265625"/>
<stop offset="1" stop-color="white" stop-opacity="0"/>
</linearGradient>
</defs>
</svg>
