<svg width="48" height="48" viewBox="0 0 48 48" fill="none" xmlns="http://www.w3.org/2000/svg">
<g clip-path="url(#clip0)">
<path d="M40.5 30H37.5C37.1022 30 36.7206 30.158 36.4393 30.4393C36.158 30.7206 36 31.1022 36 31.5V42H6V12H19.5C19.8978 12 20.2794 11.842 20.5607 11.5607C20.842 11.2794 21 10.8978 21 10.5V7.5C21 7.10218 20.842 6.72064 20.5607 6.43934C20.2794 6.15804 19.8978 6 19.5 6H4.5C3.30653 6 2.16193 6.47411 1.31802 7.31802C0.474106 8.16193 0 9.30653 0 10.5L0 43.5C0 44.6935 0.474106 45.8381 1.31802 46.682C2.16193 47.5259 3.30653 48 4.5 48H37.5C38.6935 48 39.8381 47.5259 40.682 46.682C41.5259 45.8381 42 44.6935 42 43.5V31.5C42 31.1022 41.842 30.7206 41.5607 30.4393C41.2794 30.158 40.8978 30 40.5 30ZM45.75 0H33.75C31.7466 0 30.7453 2.42906 32.1562 3.84375L35.5059 7.19344L12.6562 30.0347C12.4465 30.2437 12.2801 30.4921 12.1665 30.7656C12.0529 31.0391 11.9945 31.3323 11.9945 31.6284C11.9945 31.9246 12.0529 32.2178 12.1665 32.4913C12.2801 32.7648 12.4465 33.0132 12.6562 33.2222L14.7816 35.3438C14.9906 35.5535 15.239 35.7199 15.5125 35.8335C15.786 35.9471 16.0792 36.0055 16.3753 36.0055C16.6714 36.0055 16.9647 35.9471 17.2382 35.8335C17.5116 35.7199 17.76 35.5535 17.9691 35.3438L40.8075 12.4988L44.1562 15.8438C45.5625 17.25 48 16.2656 48 14.25V2.25C48 1.65326 47.7629 1.08097 47.341 0.65901C46.919 0.237053 46.3467 0 45.75 0V0Z" fill="#E7DFDD"/>
</g>
<defs>
<clipPath id="clip0">
<rect width="48" height="48" fill="white"/>
</clipPath>
</defs>
</svg>
